<?xml version="1.0" encoding="UTF-8"?>
<svg id="Calque_2" data-name="Calque 2" xmlns="http://www.w3.org/2000/svg" viewBox="0 0 404.63 450.41">
  <defs>
    <style>
      .cls-1 {
        fill: #7a4ece;
      }

      .cls-1, .cls-2, .cls-3 {
        fill-rule: evenodd;
      }

      .cls-2 {
        fill: #36183d;
      }

      .cls-4 {
        fill: #4e2c56;
      }

      .cls-5 {
        fill: #fff;
      }

      .cls-3 {
        fill: #f2d64c;
      }
    </style>
  </defs>
  <g id="Calque_1-2" data-name="Calque 1">
    <g>
      <circle class="cls-5" cx="196.06" cy="278.62" r="171.75"/>
      <path class="cls-2" d="M26.84,245.94s-36.98-111.92,7.85-157.28c0,0-1.54,30.78,13.52,56.55C57.06,75.45,136.31,64.44,121.82,0c0,0,74.93,45.6,82.85,86.46,0,0,18.3-33.87,10.79-52.79-7.51-18.92,97.21,50.99,120.4,140.13,23.2,89.13-309.01,72.15-309.01,72.15Z"/>
      <path class="cls-3" d="M393.24,334.54c-11.02,16.26-30.99,29.81-57.37,29.28-16.89-.34-31.67-6.89-43.11-14-11.68-7.26-21.64-16.22-28.95-23.66-5.63-5.73-13.97-7.9-21.1-6.43l-73.23,15.1c-7.13,1.47-13.93,6.76-16.83,14.25-3.77,9.73-9.37,21.9-17.23,33.19-7.69,11.05-18.68,22.92-34.06,29.91-24.01,10.92-47.72,6.38-64.27-4.2-16.22-10.36-27.4-27.34-29.26-45.67-1.79-17.62-3.82-35.95-5.72-48.97-2.64-18.17-2.43-40.56-1.44-59.67,1.76-34.15,29.35-64.83,68.34-77.74,29.9-9.9,68.23-21.64,100.05-28.2,31.83-6.56,71.67-10.94,103.05-13.68,40.92-3.57,78.39,13.7,93.51,44.36,8.47,17.16,17.52,37.64,22.28,55.38,3.42,12.71,8.8,30.35,14.12,47.24,5.54,17.57,2,37.58-8.8,53.51Z"/>
      <g>
        <rect class="cls-4" x="79.72" y="232.83" width="18.72" height="87.76" rx="6.4" ry="6.4" transform="translate(-54.05 23.69) rotate(-11.65)"/>
        <rect class="cls-4" x="45.2" y="267.36" width="87.76" height="18.72" rx="6.4" ry="6.4" transform="translate(-54.05 23.69) rotate(-11.65)"/>
      </g>
      <g>
        <circle class="cls-4" cx="286.6" cy="207.36" r="14.21"/>
        <circle class="cls-4" cx="264.5" cy="240.94" r="14.21"/>
        <circle class="cls-4" cx="320.18" cy="229.46" r="14.21"/>
        <circle class="cls-4" cx="298.08" cy="263.04" r="14.21"/>
      </g>
      <path class="cls-1" d="M271.1,379.19c2.84,13.8-18.17,29.79-46.94,35.72-28.77,5.93-54.39-.44-57.24-14.24-.17-.81-.25-1.62-.26-2.44-.02-2.02,1.94-3.46,3.84-2.79,12.52,4.42,30.6,5.19,49.89,1.21,19.22-3.96,35.48-11.78,45.24-20.75,1.54-1.41,4-.85,4.79,1.08.29.71.52,1.45.67,2.21Z"/>
    </g>
  </g>
</svg>